<!-- Generated by IcoMoon.io -->
<svg version="1.1" xmlns="http://www.w3.org/2000/svg" width="1024" height="1024" viewBox="0 0 1024 1024">
<title></title>
<g id="icomoon-ignore">
</g>
<!-- <path fill="#000" d="M592.054 314.836c-33.547 0-65.035-14.972-89.88-42.437l-66.579 94.699c2.012 63.351 69.34 114.443 151.827 114.443s149.908-51.139 151.827-114.537l-60.497-91.236c-24.33 25.312-54.742 39.115-86.698 39.115z"></path>
<path fill="#000" d="M833.854 208.627h-486.22v327.89h486.22v-327.89zM758.011 364.197c0 75.001-76.545 136.012-170.589 136.012s-170.589-61.011-170.589-136.012v-2.948l84.359-120.011 7.767 10.059c22.224 28.868 51.747 44.823 83.095 44.823s58.625-14.785 80.522-41.594l8.048-9.825 77.387 116.689v2.807z"></path>
<path fill="#000" d="M672.576 254.479c-21.944 26.856-50.531 41.594-80.522 41.594s-60.824-15.908-83.095-44.823l-7.767-10.059-84.359 120.011v2.948c0 75.001 76.545 136.012 170.589 136.012s170.589-61.011 170.589-136.012v-2.807l-77.387-116.689-8.048 9.825zM587.422 481.494c-82.487 0-149.815-51.046-151.827-114.443l66.579-94.699c24.798 27.464 56.333 42.437 89.88 42.437s62.368-13.802 86.698-39.115l60.497 91.236c-1.918 63.398-69.293 114.537-151.827 114.537z"></path> -->
<path fill="#000" d="M887.941 562.157v-399.382c0-21.71-17.592-39.302-48.659-39.302h-636.69c-46.039 0-151.593 130.258-151.593 531.136 0 21.71 17.592 39.302 29.944 39.302h689.841c62.789 0 108.408-40.097 116.034-92.219 42.577 18.247 72.241 58.766 72.241 105.694 0 63.959-55.069 116.034-122.771 116.034h-269.826c-9.264-23.441-32.097-40.050-58.766-40.050h-339.68c-34.904 0-63.257 28.353-63.257 63.257s28.353 63.257 63.257 63.257h339.587c29.991 0 55.116-21.008 61.573-49.034h267.065c88.336 0 160.202-68.825 160.202-153.464 0-67.328-45.478-124.596-108.548-145.23zM471.341 633.227c-12.258 0-22.271-10.013-22.271-22.271s10.013-22.271 22.271-22.271 22.271 10.013 22.271 22.271-10.013 22.271-22.271 22.271zM399.288 633.227c-12.258 0-22.271-10.013-22.271-22.271s10.013-22.271 22.271-22.271 22.271 10.013 22.271 22.271-10.013 22.271-22.271 22.271zM327.235 633.227c-12.258 0-22.271-10.013-22.271-22.271s10.013-22.271 22.271-22.271 22.271 10.013 22.271 22.271-10.013 22.271-22.271 22.271zM347.634 208.674h486.22v327.89h-486.22v-327.936zM275.815 519.72c0 39.536-24.47 71.539-63.959 71.539h-50.905c-14.411 0-26.108-11.697-26.108-26.108 0-266.13 70.088-352.594 106.864-352.594h15.627c14.411 0 18.481 11.697 18.481 26.108v281.008zM169.185 797.453h274.271v44.542h-274.271c-12.258 0-22.271-10.013-22.271-22.271s10.013-22.271 22.271-22.271z"></path>
<!-- <path fill="#000" d="M493.566 610.956c0 12.3-9.971 22.271-22.271 22.271s-22.271-9.971-22.271-22.271c0-12.3 9.971-22.271 22.271-22.271s22.271 9.971 22.271 22.271z"></path> -->
</svg>
